STARTFONT 2.1
FONT -Monotype-Nimrod-Bold-R-Normal--10-100-75-75-P-62-iso8859-5
SIZE 10 75 75
FONTBOUNDINGBOX 13 13 -1 -2

STARTPROPERTIES 24
FOUNDRY "Monotype"
FAMILY_NAME "Nimrod"
WEIGHT_NAME "Bold"
SLANT "R"
SETWIDTH_NAME "Normal"
ADD_STYLE_NAME ""
PIXEL_SIZE 10
POINT_SIZE 100
RESOLUTION_X 75
RESOLUTION_Y 75
SPACING "P"
AVERAGE_WIDTH 62
CHARSET_REGISTRY "iso8859"
CHARSET_ENCODING "5"
FACE_NAME "Nimrod Bold ISO Latin Cyrillic"
_DEC_DEVICE_FONTNAMES "PS=nimrod-b-latcyrillic"
COPYRIGHT "Copyright (c) 1994 Monotype Typography Ltd."
CAP_HEIGHT 9
X_HEIGHT 7
WEIGHT 10
QUAD_WIDTH 7
DEFAULT_CHAR 160
FONT_DESCENT 2
FONT_ASCENT 11
ENDPROPERTIES

CHARS 191

STARTCHAR space
ENCODING 32
SWIDTH 250 0
DWIDTH 3 0
BBX 0 0 0 0
BITMAP
ENDCHAR

STARTCHAR exclam
ENCODING 33
SWIDTH 323 0
DWIDTH 3 0
BBX 2 8 1 0
BITMAP
C0
C0
C0
C0
C0
00
C0
C0
ENDCHAR

STARTCHAR quotedbl
ENCODING 34
SWIDTH 552 0
DWIDTH 6 0
BBX 5 3 1 5
BITMAP
D8
D8
90
ENDCHAR

STARTCHAR numbersign
ENCODING 35
SWIDTH 667 0
DWIDTH 7 0
BBX 7 8 0 0
BITMAP
24
24
7E
28
28
FC
48
48
ENDCHAR

STARTCHAR dollar
ENCODING 36
SWIDTH 542 0
DWIDTH 5 0
BBX 5 9 0 -1
BITMAP
20
70
C8
E0
70
38
98
70
20
ENDCHAR

STARTCHAR percent
ENCODING 37
SWIDTH 1000 0
DWIDTH 10 0
BBX 7 8 2 0
BITMAP
44
A8
A8
50
14
2A
2A
44
ENDCHAR

STARTCHAR ampersand
ENCODING 38
SWIDTH 865 0
DWIDTH 9 0
BBX 9 8 0 0
BITMAP
1800
3400
3400
3B80
5900
CE00
C680
7B00
ENDCHAR

STARTCHAR quoteright
ENCODING 39
SWIDTH 323 0
DWIDTH 3 0
BBX 3 3 0 5
BITMAP
60
60
C0
ENDCHAR

STARTCHAR parenleft
ENCODING 40
SWIDTH 385 0
DWIDTH 4 0
BBX 3 10 1 -2
BITMAP
20
40
40
C0
C0
C0
C0
40
40
20
ENDCHAR

STARTCHAR parenright
ENCODING 41
SWIDTH 385 0
DWIDTH 4 0
BBX 3 10 1 -2
BITMAP
80
40
40
60
60
60
60
40
40
80
ENDCHAR

STARTCHAR asterisk
ENCODING 42
SWIDTH 552 0
DWIDTH 6 0
BBX 3 4 2 4
BITMAP
40
E0
40
A0
ENDCHAR

STARTCHAR plus
ENCODING 43
SWIDTH 667 0
DWIDTH 7 0
BBX 5 5 1 1
BITMAP
20
20
F8
20
20
ENDCHAR

STARTCHAR comma
ENCODING 44
SWIDTH 323 0
DWIDTH 3 0
BBX 3 3 0 -1
BITMAP
60
60
C0
ENDCHAR

STARTCHAR minus
ENCODING 45
SWIDTH 667 0
DWIDTH 7 0
BBX 5 1 1 3
BITMAP
F8
ENDCHAR

STARTCHAR period
ENCODING 46
SWIDTH 323 0
DWIDTH 3 0
BBX 2 2 1 0
BITMAP
C0
C0
ENDCHAR

STARTCHAR slash
ENCODING 47
SWIDTH 552 0
DWIDTH 6 0
BBX 5 8 1 0
BITMAP
08
18
10
30
20
60
40
C0
ENDCHAR

STARTCHAR zero
ENCODING 48
SWIDTH 594 0
DWIDTH 6 0
BBX 6 8 0 0
BITMAP
30
48
CC
CC
CC
CC
48
30
ENDCHAR

STARTCHAR one
ENCODING 49
SWIDTH 594 0
DWIDTH 6 0
BBX 4 8 1 0
BITMAP
20
E0
60
60
60
60
60
F0
ENDCHAR

STARTCHAR two
ENCODING 50
SWIDTH 594 0
DWIDTH 6 0
BBX 5 8 1 0
BITMAP
70
D8
18
18
30
20
48
F8
ENDCHAR

STARTCHAR three
ENCODING 51
SWIDTH 594 0
DWIDTH 6 0
BBX 5 8 1 0
BITMAP
70
D8
18
30
18
D8
98
70
ENDCHAR

STARTCHAR four
ENCODING 52
SWIDTH 594 0
DWIDTH 6 0
BBX 6 8 0 0
BITMAP
08
18
38
58
98
FC
18
3C
ENDCHAR

STARTCHAR five
ENCODING 53
SWIDTH 594 0
DWIDTH 6 0
BBX 5 8 1 0
BITMAP
78
40
E0
90
18
D8
98
70
ENDCHAR

STARTCHAR six
ENCODING 54
SWIDTH 594 0
DWIDTH 6 0
BBX 5 8 1 0
BITMAP
70
D8
C0
F0
D8
D8
D8
70
ENDCHAR

STARTCHAR seven
ENCODING 55
SWIDTH 594 0
DWIDTH 6 0
BBX 5 8 1 0
BITMAP
F8
98
10
30
30
20
60
60
ENDCHAR

STARTCHAR eight
ENCODING 56
SWIDTH 594 0
DWIDTH 6 0
BBX 5 8 1 0
BITMAP
70
D8
D8
70
D8
D8
D8
70
ENDCHAR

STARTCHAR nine
ENCODING 57
SWIDTH 594 0
DWIDTH 6 0
BBX 5 8 1 0
BITMAP
70
D8
D8
D8
78
18
D8
70
ENDCHAR

STARTCHAR colon
ENCODING 58
SWIDTH 323 0
DWIDTH 3 0
BBX 2 5 1 0
BITMAP
C0
C0
00
C0
C0
ENDCHAR

STARTCHAR semicolon
ENCODING 59
SWIDTH 323 0
DWIDTH 3 0
BBX 3 6 0 -1
BITMAP
60
60
00
60
60
C0
ENDCHAR

STARTCHAR less
ENCODING 60
SWIDTH 667 0
DWIDTH 7 0
BBX 5 5 1 1
BITMAP
18
60
80
60
18
ENDCHAR

STARTCHAR equal
ENCODING 61
SWIDTH 667 0
DWIDTH 7 0
BBX 5 3 1 2
BITMAP
F8
00
F8
ENDCHAR

STARTCHAR greater
ENCODING 62
SWIDTH 667 0
DWIDTH 7 0
BBX 5 5 1 1
BITMAP
C0
30
08
30
C0
ENDCHAR

STARTCHAR question
ENCODING 63
SWIDTH 500 0
DWIDTH 5 0
BBX 4 8 1 0
BITMAP
60
B0
30
60
40
00
60
60
ENDCHAR

STARTCHAR at
ENCODING 64
SWIDTH 927 0
DWIDTH 9 0
BBX 9 10 0 -2
BITMAP
1E00
6100
4A80
9680
B680
B680
B500
9A00
4100
3E00
ENDCHAR

STARTCHAR A
ENCODING 65
SWIDTH 854 0
DWIDTH 9 0
BBX 9 8 0 0
BITMAP
0800
0C00
1C00
1600
2600
3F00
4300
E780
ENDCHAR

STARTCHAR B
ENCODING 66
SWIDTH 792 0
DWIDTH 8 0
BBX 7 8 1 0
BITMAP
FC
66
66
7C
66
66
66
FC
ENDCHAR

STARTCHAR C
ENCODING 67
SWIDTH 750 0
DWIDTH 8 0
BBX 7 8 1 0
BITMAP
3C
66
C2
C0
C0
C2
64
38
ENDCHAR

STARTCHAR D
ENCODING 68
SWIDTH 823 0
DWIDTH 8 0
BBX 8 8 0 0
BITMAP
FC
66
63
63
63
63
66
FC
ENDCHAR

STARTCHAR E
ENCODING 69
SWIDTH 750 0
DWIDTH 8 0
BBX 7 8 1 0
BITMAP
FE
62
6A
78
68
62
62
FE
ENDCHAR

STARTCHAR F
ENCODING 70
SWIDTH 698 0
DWIDTH 7 0
BBX 7 8 0 0
BITMAP
FE
62
6A
78
68
60
60
F0
ENDCHAR

STARTCHAR G
ENCODING 71
SWIDTH 854 0
DWIDTH 9 0
BBX 8 8 1 0
BITMAP
3C
66
C2
C0
CF
C6
66
3C
ENDCHAR

STARTCHAR H
ENCODING 72
SWIDTH 865 0
DWIDTH 9 0
BBX 8 8 1 0
BITMAP
E7
66
66
7E
66
66
66
E7
ENDCHAR

STARTCHAR I
ENCODING 73
SWIDTH 448 0
DWIDTH 4 0
BBX 4 8 0 0
BITMAP
F0
60
60
60
60
60
60
F0
ENDCHAR

STARTCHAR J
ENCODING 74
SWIDTH 635 0
DWIDTH 6 0
BBX 6 8 0 0
BITMAP
3C
18
18
18
18
D8
98
70
ENDCHAR

STARTCHAR K
ENCODING 75
SWIDTH 854 0
DWIDTH 9 0
BBX 8 8 1 0
BITMAP
F7
62
64
68
78
6C
66
F7
ENDCHAR

STARTCHAR L
ENCODING 76
SWIDTH 708 0
DWIDTH 7 0
BBX 6 8 1 0
BITMAP
F0
60
60
60
60
64
64
FC
ENDCHAR

STARTCHAR M
ENCODING 77
SWIDTH 1052 0
DWIDTH 11 0
BBX 10 8 1 0
BITMAP
E3C0
6380
7580
5580
5580
5980
4980
EBC0
ENDCHAR

STARTCHAR N
ENCODING 78
SWIDTH 833 0
DWIDTH 8 0
BBX 8 8 0 0
BITMAP
E7
72
72
5A
5A
4E
4E
E6
ENDCHAR

STARTCHAR O
ENCODING 79
SWIDTH 823 0
DWIDTH 8 0
BBX 7 8 1 0
BITMAP
38
6C
C6
C6
C6
C6
6C
38
ENDCHAR

STARTCHAR P
ENCODING 80
SWIDTH 729 0
DWIDTH 7 0
BBX 7 8 0 0
BITMAP
FC
66
66
66
7C
60
60
F0
ENDCHAR

STARTCHAR Q
ENCODING 81
SWIDTH 823 0
DWIDTH 8 0
BBX 8 9 1 -1
BITMAP
38
6C
C6
C6
C6
D6
6C
38
0F
ENDCHAR

STARTCHAR R
ENCODING 82
SWIDTH 802 0
DWIDTH 8 0
BBX 8 8 1 0
BITMAP
FC
66
66
66
7C
6C
66
F7
ENDCHAR

STARTCHAR S
ENCODING 83
SWIDTH 646 0
DWIDTH 6 0
BBX 5 8 1 0
BITMAP
70
D8
C8
60
30
98
D8
70
ENDCHAR

STARTCHAR T
ENCODING 84
SWIDTH 729 0
DWIDTH 7 0
BBX 6 8 1 0
BITMAP
FC
B4
B4
30
30
30
30
78
ENDCHAR

STARTCHAR U
ENCODING 85
SWIDTH 802 0
DWIDTH 8 0
BBX 7 8 1 0
BITMAP
EE
64
64
64
64
64
64
38
ENDCHAR

STARTCHAR V
ENCODING 86
SWIDTH 823 0
DWIDTH 8 0
BBX 8 8 0 0
BITMAP
F7
62
62
32
34
34
18
08
ENDCHAR

STARTCHAR W
ENCODING 87
SWIDTH 1104 0
DWIDTH 11 0
BBX 11 8 0 0
BITMAP
EF60
6640
6640
6640
3680
3B80
1100
1100
ENDCHAR

STARTCHAR X
ENCODING 88
SWIDTH 802 0
DWIDTH 8 0
BBX 8 8 0 0
BITMAP
F7
62
34
18
18
2C
46
EF
ENDCHAR

STARTCHAR Y
ENCODING 89
SWIDTH 792 0
DWIDTH 8 0
BBX 8 8 0 0
BITMAP
F7
62
34
34
18
18
18
3C
ENDCHAR

STARTCHAR Z
ENCODING 90
SWIDTH 667 0
DWIDTH 7 0
BBX 6 8 1 0
BITMAP
FC
8C
98
30
30
64
C4
FC
ENDCHAR

STARTCHAR bracketleft
ENCODING 91
SWIDTH 396 0
DWIDTH 4 0
BBX 3 10 1 -2
BITMAP
E0
C0
C0
C0
C0
C0
C0
C0
C0
E0
ENDCHAR

STARTCHAR backslash
ENCODING 92
SWIDTH 552 0
DWIDTH 6 0
BBX 6 8 0 0
BITMAP
C0
60
20
30
10
18
08
0C
ENDCHAR

STARTCHAR bracketright
ENCODING 93
SWIDTH 396 0
DWIDTH 4 0
BBX 3 10 1 -2
BITMAP
E0
60
60
60
60
60
60
60
60
E0
ENDCHAR

STARTCHAR asciicircum
ENCODING 94
SWIDTH 583 0
DWIDTH 6 0
BBX 5 3 1 5
BITMAP
20
70
88
ENDCHAR

STARTCHAR underscore
ENCODING 95
SWIDTH 500 0
DWIDTH 5 0
BBX 5 1 0 -2
BITMAP
F8
ENDCHAR

STARTCHAR quoteleft
ENCODING 96
SWIDTH 323 0
DWIDTH 3 0
BBX 3 3 0 5
BITMAP
60
C0
C0
ENDCHAR

STARTCHAR a
ENCODING 97
SWIDTH 615 0
DWIDTH 7 0
BBX 6 5 1 0
BITMAP
70
98
78
D8
7C
ENDCHAR

STARTCHAR b
ENCODING 98
SWIDTH 646 0
DWIDTH 6 0
BBX 6 8 0 0
BITMAP
E0
60
60
78
6C
6C
6C
58
ENDCHAR

STARTCHAR c
ENCODING 99
SWIDTH 542 0
DWIDTH 5 0
BBX 4 5 1 0
BITMAP
60
D0
C0
D0
60
ENDCHAR

STARTCHAR d
ENCODING 100
SWIDTH 646 0
DWIDTH 7 0
BBX 6 8 1 0
BITMAP
38
18
18
78
D8
D8
D8
6C
ENDCHAR

STARTCHAR e
ENCODING 101
SWIDTH 562 0
DWIDTH 6 0
BBX 5 5 1 0
BITMAP
70
D8
F8
C0
78
ENDCHAR

STARTCHAR f
ENCODING 102
SWIDTH 406 0
DWIDTH 4 0
BBX 5 8 0 0
BITMAP
38
60
60
F0
60
60
60
F0
ENDCHAR

STARTCHAR g
ENCODING 103
SWIDTH 604 0
DWIDTH 6 0
BBX 5 7 1 -2
BITMAP
78
D0
D0
E0
70
D8
70
ENDCHAR

STARTCHAR h
ENCODING 104
SWIDTH 698 0
DWIDTH 8 0
BBX 7 8 1 0
BITMAP
E0
60
60
78
6C
6C
6C
EE
ENDCHAR

STARTCHAR i
ENCODING 105
SWIDTH 385 0
DWIDTH 4 0
BBX 4 8 0 0
BITMAP
60
60
00
E0
60
60
60
F0
ENDCHAR

STARTCHAR j
ENCODING 106
SWIDTH 375 0
DWIDTH 4 0
BBX 3 10 1 -2
BITMAP
60
60
00
E0
60
60
60
60
60
C0
ENDCHAR

STARTCHAR k
ENCODING 107
SWIDTH 698 0
DWIDTH 7 0
BBX 6 8 1 0
BITMAP
E0
60
60
6C
70
78
68
EC
ENDCHAR

STARTCHAR l
ENCODING 108
SWIDTH 385 0
DWIDTH 4 0
BBX 4 7 0 0
BITMAP
E0
60
60
60
60
60
F0
ENDCHAR

STARTCHAR m
ENCODING 109
SWIDTH 1000 0
DWIDTH 10 0
BBX 10 5 0 0
BITMAP
ED80
7F80
6D80
6D80
6DC0
ENDCHAR

STARTCHAR n
ENCODING 110
SWIDTH 698 0
DWIDTH 7 0
BBX 7 5 0 0
BITMAP
EC
7C
6C
6C
EE
ENDCHAR

STARTCHAR o
ENCODING 111
SWIDTH 615 0
DWIDTH 6 0
BBX 5 5 1 0
BITMAP
70
D8
D8
D8
70
ENDCHAR

STARTCHAR p
ENCODING 112
SWIDTH 646 0
DWIDTH 6 0
BBX 6 7 0 -2
BITMAP
F8
6C
6C
6C
78
60
F0
ENDCHAR

STARTCHAR q
ENCODING 113
SWIDTH 646 0
DWIDTH 7 0
BBX 6 7 1 -2
BITMAP
68
D8
D8
D8
78
18
3C
ENDCHAR

STARTCHAR r
ENCODING 114
SWIDTH 542 0
DWIDTH 5 0
BBX 5 5 0 0
BITMAP
D8
68
60
60
F0
ENDCHAR

STARTCHAR s
ENCODING 115
SWIDTH 510 0
DWIDTH 5 0
BBX 4 5 1 0
BITMAP
70
C0
60
30
E0
ENDCHAR

STARTCHAR t
ENCODING 116
SWIDTH 427 0
DWIDTH 4 0
BBX 4 8 0 0
BITMAP
20
20
60
F0
60
60
60
30
ENDCHAR

STARTCHAR u
ENCODING 117
SWIDTH 698 0
DWIDTH 7 0
BBX 7 5 0 0
BITMAP
EC
6C
6C
7C
6E
ENDCHAR

STARTCHAR v
ENCODING 118
SWIDTH 635 0
DWIDTH 5 0
BBX 6 5 0 0
BITMAP
EC
68
70
30
20
ENDCHAR

STARTCHAR w
ENCODING 119
SWIDTH 906 0
DWIDTH 9 0
BBX 9 5 0 0
BITMAP
ED80
6D00
6D00
3F00
1200
ENDCHAR

STARTCHAR x
ENCODING 120
SWIDTH 646 0
DWIDTH 6 0
BBX 6 5 0 0
BITMAP
EC
68
30
58
DC
ENDCHAR

STARTCHAR y
ENCODING 121
SWIDTH 635 0
DWIDTH 6 0
BBX 6 7 0 -2
BITMAP
EC
68
68
30
30
A0
C0
ENDCHAR

STARTCHAR z
ENCODING 122
SWIDTH 521 0
DWIDTH 5 0
BBX 5 5 0 0
BITMAP
F8
18
70
C0
F8
ENDCHAR

STARTCHAR braceleft
ENCODING 123
SWIDTH 396 0
DWIDTH 4 0
BBX 3 10 1 -2
BITMAP
20
40
C0
40
80
80
40
C0
40
20
ENDCHAR

STARTCHAR bar
ENCODING 124
SWIDTH 542 0
DWIDTH 5 0
BBX 2 8 2 0
BITMAP
C0
C0
C0
C0
C0
C0
C0
C0
ENDCHAR

STARTCHAR braceright
ENCODING 125
SWIDTH 396 0
DWIDTH 4 0
BBX 3 10 1 -2
BITMAP
80
40
60
40
20
20
40
60
40
80
ENDCHAR

STARTCHAR asciitilde
ENCODING 126
SWIDTH 667 0
DWIDTH 7 0
BBX 6 2 1 2
BITMAP
74
B8
ENDCHAR

STARTCHAR space
ENCODING 160
SWIDTH 250 0
DWIDTH 3 0
BBX 0 0 0 0
BITMAP
ENDCHAR

STARTCHAR afii10023
ENCODING 161
SWIDTH 719 0
DWIDTH 8 0
BBX 7 11 1 0
BITMAP
6C
6C
00
FE
62
6A
78
68
62
62
FE
ENDCHAR

STARTCHAR afii10051
ENCODING 162
SWIDTH 927 0
DWIDTH 8 0
BBX 8 8 0 0
BITMAP
FC
B4
30
3E
33
33
33
76
ENDCHAR

STARTCHAR afii10052
ENCODING 163
SWIDTH 687 0
DWIDTH 7 0
BBX 6 11 1 0
BITMAP
18
20
00
FC
64
64
60
60
60
60
F0
ENDCHAR

STARTCHAR afii10053
ENCODING 164
SWIDTH 750 0
DWIDTH 8 0
BBX 7 8 1 0
BITMAP
3C
66
C2
F8
C0
C2
64
38
ENDCHAR

STARTCHAR afii10054
ENCODING 165
SWIDTH 646 0
DWIDTH 6 0
BBX 5 8 1 0
BITMAP
70
D8
C8
60
30
98
D8
70
ENDCHAR

STARTCHAR afii10055
ENCODING 166
SWIDTH 448 0
DWIDTH 4 0
BBX 4 8 0 0
BITMAP
F0
60
60
60
60
60
60
F0
ENDCHAR

STARTCHAR afii10056
ENCODING 167
SWIDTH 448 0
DWIDTH 4 0
BBX 5 11 0 0
BITMAP
D8
D8
00
F0
60
60
60
60
60
60
F0
ENDCHAR

STARTCHAR afii10057
ENCODING 168
SWIDTH 635 0
DWIDTH 6 0
BBX 6 8 0 0
BITMAP
3C
18
18
18
18
D8
98
70
ENDCHAR

STARTCHAR afii10058
ENCODING 169
SWIDTH 1164 0
DWIDTH 11 0
BBX 11 8 0 0
BITMAP
7F00
2600
2600
27C0
2660
2660
A660
CFC0
ENDCHAR

STARTCHAR afii10059
ENCODING 170
SWIDTH 1171 0
DWIDTH 12 0
BBX 11 8 1 0
BITMAP
F700
6600
6600
7FC0
6660
6660
6660
F7C0
ENDCHAR

STARTCHAR afii10060
ENCODING 171
SWIDTH 946 0
DWIDTH 9 0
BBX 9 8 0 0
BITMAP
FC00
B400
3000
3600
3B00
3300
3300
7B80
ENDCHAR

STARTCHAR afii10061
ENCODING 172
SWIDTH 831 0
DWIDTH 9 0
BBX 8 11 1 0
BITMAP
06
08
00
F3
65
64
78
6C
6C
66
F7
ENDCHAR

STARTCHAR hyphen
ENCODING 173
SWIDTH 323 0
DWIDTH 3 0
BBX 3 1 0 2
BITMAP
E0
ENDCHAR

STARTCHAR afii10062
ENCODING 174
SWIDTH 748 0
DWIDTH 7 0
BBX 8 11 0 0
BITMAP
24
18
00
F7
62
62
34
34
18
C8
70
ENDCHAR

STARTCHAR afii10145
ENCODING 175
SWIDTH 865 0
DWIDTH 9 0
BBX 8 10 1 -2
BITMAP
E7
66
66
66
66
66
66
FF
18
18
ENDCHAR

STARTCHAR afii10017
ENCODING 176
SWIDTH 854 0
DWIDTH 9 0
BBX 9 8 0 0
BITMAP
0800
0C00
1C00
1600
2600
3F00
4300
E780
ENDCHAR

STARTCHAR afii10018
ENCODING 177
SWIDTH 792 0
DWIDTH 8 0
BBX 7 8 1 0
BITMAP
FE
62
60
7C
66
66
66
FC
ENDCHAR

STARTCHAR afii10019
ENCODING 178
SWIDTH 792 0
DWIDTH 8 0
BBX 7 8 1 0
BITMAP
FC
66
66
7C
66
66
66
FC
ENDCHAR

STARTCHAR afii10020
ENCODING 179
SWIDTH 687 0
DWIDTH 7 0
BBX 6 8 1 0
BITMAP
FC
64
64
60
60
60
60
F0
ENDCHAR

STARTCHAR afii10021
ENCODING 180
SWIDTH 813 0
DWIDTH 8 0
BBX 8 10 0 -2
BITMAP
7F
26
26
26
26
46
46
FF
C3
81
ENDCHAR

STARTCHAR afii10022
ENCODING 181
SWIDTH 719 0
DWIDTH 8 0
BBX 7 8 1 0
BITMAP
FE
62
6A
78
68
62
62
FE
ENDCHAR

STARTCHAR afii10024
ENCODING 182
SWIDTH 1189 0
DWIDTH 12 0
BBX 12 8 0 0
BITMAP
CF30
6660
2640
3FC0
36C0
6660
6660
EF70
ENDCHAR

STARTCHAR afii10025
ENCODING 183
SWIDTH 689 0
DWIDTH 7 0
BBX 6 8 1 0
BITMAP
78
CC
8C
38
0C
0C
8C
78
ENDCHAR

STARTCHAR afii10026
ENCODING 184
SWIDTH 880 0
DWIDTH 9 0
BBX 8 8 1 0
BITMAP
E7
66
6E
76
66
66
66
E7
ENDCHAR

STARTCHAR afii10027
ENCODING 185
SWIDTH 880 0
DWIDTH 9 0
BBX 8 11 1 0
BITMAP
24
18
00
E7
66
6E
76
66
66
66
E7
ENDCHAR

STARTCHAR afii10028
ENCODING 186
SWIDTH 831 0
DWIDTH 9 0
BBX 8 8 1 0
BITMAP
F3
65
64
78
6C
6C
66
F7
ENDCHAR

STARTCHAR afii10029
ENCODING 187
SWIDTH 844 0
DWIDTH 8 0
BBX 8 8 0 0
BITMAP
7F
26
26
26
26
26
A6
CF
ENDCHAR

STARTCHAR afii10030
ENCODING 188
SWIDTH 1052 0
DWIDTH 11 0
BBX 10 8 1 0
BITMAP
E3C0
6380
7580
5580
5580
5980
4980
EBC0
ENDCHAR

STARTCHAR afii10031
ENCODING 189
SWIDTH 865 0
DWIDTH 9 0
BBX 8 8 1 0
BITMAP
E7
66
66
7E
66
66
66
E7
ENDCHAR

STARTCHAR afii10032
ENCODING 190
SWIDTH 823 0
DWIDTH 8 0
BBX 7 8 1 0
BITMAP
38
6C
C6
C6
C6
C6
6C
38
ENDCHAR

STARTCHAR afii10033
ENCODING 191
SWIDTH 865 0
DWIDTH 9 0
BBX 8 8 1 0
BITMAP
FF
66
66
66
66
66
66
E7
ENDCHAR

STARTCHAR afii10034
ENCODING 192
SWIDTH 729 0
DWIDTH 7 0
BBX 7 8 0 0
BITMAP
FC
66
66
66
7C
60
60
F0
ENDCHAR

STARTCHAR afii10035
ENCODING 193
SWIDTH 750 0
DWIDTH 8 0
BBX 7 8 1 0
BITMAP
3C
66
C2
C0
C0
C2
64
38
ENDCHAR

STARTCHAR afii10036
ENCODING 194
SWIDTH 729 0
DWIDTH 7 0
BBX 6 8 1 0
BITMAP
FC
B4
B4
30
30
30
30
78
ENDCHAR

STARTCHAR afii10037
ENCODING 195
SWIDTH 748 0
DWIDTH 7 0
BBX 8 8 0 0
BITMAP
F7
62
62
34
34
18
C8
70
ENDCHAR

STARTCHAR afii10038
ENCODING 196
SWIDTH 934 0
DWIDTH 9 0
BBX 8 8 1 0
BITMAP
3C
18
7E
DB
DB
7E
18
3C
ENDCHAR

STARTCHAR afii10039
ENCODING 197
SWIDTH 802 0
DWIDTH 8 0
BBX 8 8 0 0
BITMAP
F7
62
34
18
18
2C
46
EF
ENDCHAR

STARTCHAR afii10040
ENCODING 198
SWIDTH 882 0
DWIDTH 9 0
BBX 8 10 1 -2
BITMAP
E7
66
66
66
66
66
66
FF
03
01
ENDCHAR

STARTCHAR afii10041
ENCODING 199
SWIDTH 817 0
DWIDTH 9 0
BBX 8 8 1 0
BITMAP
F7
66
66
66
3E
06
06
0F
ENDCHAR

STARTCHAR afii10042
ENCODING 200
SWIDTH 1133 0
DWIDTH 12 0
BBX 12 8 0 0
BITMAP
F770
6660
6660
6660
6660
6660
6660
FFF0
ENDCHAR

STARTCHAR afii10043
ENCODING 201
SWIDTH 1153 0
DWIDTH 12 0
BBX 12 10 0 -2
BITMAP
F770
6660
6660
6660
6660
6660
6660
FFF0
0030
0010
ENDCHAR

STARTCHAR afii10044
ENCODING 202
SWIDTH 937 0
DWIDTH 9 0
BBX 9 8 0 0
BITMAP
FC00
9800
9800
1F00
1980
1980
1980
3F00
ENDCHAR

STARTCHAR afii10045
ENCODING 203
SWIDTH 1177 0
DWIDTH 12 0
BBX 11 8 1 0
BITMAP
F1E0
60C0
60C0
7CC0
66C0
66C0
66C0
FDE0
ENDCHAR

STARTCHAR afii10046
ENCODING 204
SWIDTH 781 0
DWIDTH 8 0
BBX 7 8 1 0
BITMAP
F0
60
60
7C
66
66
66
FC
ENDCHAR

STARTCHAR afii10047
ENCODING 205
SWIDTH 750 0
DWIDTH 8 0
BBX 7 8 1 0
BITMAP
78
CC
86
3E
06
86
4C
38
ENDCHAR

STARTCHAR afii10048
ENCODING 206
SWIDTH 1219 0
DWIDTH 12 0
BBX 11 8 1 0
BITMAP
F380
66C0
6C60
7C60
6C60
6C60
66C0
F380
ENDCHAR

STARTCHAR afii10049
ENCODING 207
SWIDTH 802 0
DWIDTH 8 0
BBX 8 8 0 0
BITMAP
3F
66
66
66
3E
36
66
EF
ENDCHAR

STARTCHAR afii10065
ENCODING 208
SWIDTH 615 0
DWIDTH 7 0
BBX 6 5 1 0
BITMAP
70
98
78
D8
7C
ENDCHAR

STARTCHAR afii10066
ENCODING 209
SWIDTH 615 0
DWIDTH 7 0
BBX 6 8 1 0
BITMAP
04
78
80
B8
CC
CC
CC
78
ENDCHAR

STARTCHAR afii10067
ENCODING 210
SWIDTH 646 0
DWIDTH 7 0
BBX 6 5 1 0
BITMAP
F8
6C
78
6C
F8
ENDCHAR

STARTCHAR afii10068
ENCODING 211
SWIDTH 577 0
DWIDTH 6 0
BBX 6 5 1 0
BITMAP
FC
64
60
60
F0
ENDCHAR

STARTCHAR afii10069
ENCODING 212
SWIDTH 662 0
DWIDTH 7 0
BBX 6 7 1 -2
BITMAP
FC
58
58
98
F8
D8
88
ENDCHAR

STARTCHAR afii10070
ENCODING 213
SWIDTH 562 0
DWIDTH 6 0
BBX 5 5 1 0
BITMAP
70
D8
F8
C0
78
ENDCHAR

STARTCHAR afii10072
ENCODING 214
SWIDTH 936 0
DWIDTH 9 0
BBX 9 5 0 0
BITMAP
DD80
2A00
3E00
6B00
DD80
ENDCHAR

STARTCHAR afii10073
ENCODING 215
SWIDTH 531 0
DWIDTH 5 0
BBX 4 5 1 0
BITMAP
E0
30
60
30
E0
ENDCHAR

STARTCHAR afii10074
ENCODING 216
SWIDTH 708 0
DWIDTH 8 0
BBX 7 5 1 0
BITMAP
EE
7C
7C
6C
EE
ENDCHAR

STARTCHAR afii10075
ENCODING 217
SWIDTH 708 0
DWIDTH 8 0
BBX 7 8 1 0
BITMAP
24
18
00
EE
7C
7C
6C
EE
ENDCHAR

STARTCHAR afii10076
ENCODING 218
SWIDTH 677 0
DWIDTH 8 0
BBX 7 5 1 0
BITMAP
F6
64
78
6C
F6
ENDCHAR

STARTCHAR afii10077
ENCODING 219
SWIDTH 698 0
DWIDTH 7 0
BBX 7 5 0 0
BITMAP
7E
2C
2C
AC
CE
ENDCHAR

STARTCHAR afii10078
ENCODING 220
SWIDTH 854 0
DWIDTH 9 0
BBX 8 5 1 0
BITMAP
E7
7E
56
46
EF
ENDCHAR

STARTCHAR afii10079
ENCODING 221
SWIDTH 713 0
DWIDTH 8 0
BBX 7 5 1 0
BITMAP
EE
6C
7C
6C
EE
ENDCHAR

STARTCHAR afii10080
ENCODING 222
SWIDTH 614 0
DWIDTH 6 0
BBX 5 5 1 0
BITMAP
70
D8
D8
D8
70
ENDCHAR

STARTCHAR afii10081
ENCODING 223
SWIDTH 708 0
DWIDTH 8 0
BBX 7 5 1 0
BITMAP
FE
6C
6C
6C
EE
ENDCHAR

STARTCHAR afii10082
ENCODING 224
SWIDTH 656 0
DWIDTH 6 0
BBX 6 7 0 -2
BITMAP
F8
6C
6C
6C
78
60
F0
ENDCHAR

STARTCHAR afii10083
ENCODING 225
SWIDTH 542 0
DWIDTH 5 0
BBX 4 5 1 0
BITMAP
60
D0
C0
D0
60
ENDCHAR

STARTCHAR afii10084
ENCODING 226
SWIDTH 598 0
DWIDTH 6 0
BBX 6 5 0 0
BITMAP
FC
B4
30
30
78
ENDCHAR

STARTCHAR afii10085
ENCODING 227
SWIDTH 594 0
DWIDTH 6 0
BBX 6 7 0 -2
BITMAP
EC
68
68
30
30
A0
C0
ENDCHAR

STARTCHAR afii10086
ENCODING 228
SWIDTH 823 0
DWIDTH 9 0
BBX 8 10 1 -2
BITMAP
08
38
18
5A
FF
99
FF
5A
18
3C
ENDCHAR

STARTCHAR afii10087
ENCODING 229
SWIDTH 646 0
DWIDTH 6 0
BBX 6 5 0 0
BITMAP
EC
68
30
58
DC
ENDCHAR

STARTCHAR afii10088
ENCODING 230
SWIDTH 711 0
DWIDTH 8 0
BBX 7 7 1 -2
BITMAP
EE
6C
6C
6C
FE
06
02
ENDCHAR

STARTCHAR afii10089
ENCODING 231
SWIDTH 698 0
DWIDTH 7 0
BBX 7 5 0 0
BITMAP
EE
6C
3C
0C
1E
ENDCHAR

STARTCHAR afii10090
ENCODING 232
SWIDTH 1047 0
DWIDTH 11 0
BBX 12 5 0 0
BITMAP
F670
6660
6660
6660
FFF0
ENDCHAR

STARTCHAR afii10091
ENCODING 233
SWIDTH 1055 0
DWIDTH 11 0
BBX 12 7 0 -2
BITMAP
F670
6660
6660
6660
FFF0
0030
0010
ENDCHAR

STARTCHAR afii10092
ENCODING 234
SWIDTH 740 0
DWIDTH 7 0
BBX 7 5 0 0
BITMAP
F8
B0
3C
36
7C
ENDCHAR

STARTCHAR afii10093
ENCODING 235
SWIDTH 948 0
DWIDTH 11 0
BBX 10 5 1 0
BITMAP
F3C0
6180
7980
6D80
FBC0
ENDCHAR

STARTCHAR afii10094
ENCODING 236
SWIDTH 635 0
DWIDTH 7 0
BBX 6 5 1 0
BITMAP
F0
60
78
6C
F8
ENDCHAR

STARTCHAR afii10095
ENCODING 237
SWIDTH 567 0
DWIDTH 5 0
BBX 4 5 1 0
BITMAP
E0
30
70
30
E0
ENDCHAR

STARTCHAR afii10096
ENCODING 238
SWIDTH 935 0
DWIDTH 10 0
BBX 9 5 1 0
BITMAP
E700
6D80
7D80
6D80
E700
ENDCHAR

STARTCHAR afii10097
ENCODING 239
SWIDTH 669 0
DWIDTH 7 0
BBX 7 5 0 0
BITMAP
3E
6C
3C
4C
DE
ENDCHAR

STARTCHAR afii61352
ENCODING 240
SWIDTH 1115 0
DWIDTH 11 0
BBX 11 8 0 0
BITMAP
6180
3280
3A40
3AA0
2EA0
2E40
A600
C2E0
ENDCHAR

STARTCHAR afii10071
ENCODING 241
SWIDTH 562 0
DWIDTH 6 0
BBX 5 8 1 0
BITMAP
D8
D8
00
70
D8
F8
C0
78
ENDCHAR

STARTCHAR afii10099
ENCODING 242
SWIDTH 646 0
DWIDTH 8 0
BBX 6 10 1 -2
BITMAP
60
F8
60
78
6C
6C
6C
EC
0C
18
ENDCHAR

STARTCHAR afii10100
ENCODING 243
SWIDTH 581 0
DWIDTH 6 0
BBX 6 8 1 0
BITMAP
18
20
00
FC
64
60
60
F0
ENDCHAR

STARTCHAR afii10101
ENCODING 244
SWIDTH 552 0
DWIDTH 5 0
BBX 4 5 1 0
BITMAP
70
C0
E0
C0
70
ENDCHAR

STARTCHAR afii10102
ENCODING 245
SWIDTH 500 0
DWIDTH 5 0
BBX 4 5 1 0
BITMAP
70
C0
60
30
E0
ENDCHAR

STARTCHAR afii10103
ENCODING 246
SWIDTH 396 0
DWIDTH 4 0
BBX 4 8 0 0
BITMAP
60
60
00
E0
60
60
60
F0
ENDCHAR

STARTCHAR afii10104
ENCODING 247
SWIDTH 396 0
DWIDTH 4 0
BBX 5 8 0 0
BITMAP
D8
D8
00
E0
60
60
60
F0
ENDCHAR

STARTCHAR afii10105
ENCODING 248
SWIDTH 375 0
DWIDTH 4 0
BBX 3 10 1 -2
BITMAP
60
60
00
E0
60
60
60
60
60
C0
ENDCHAR

STARTCHAR afii10106
ENCODING 249
SWIDTH 967 0
DWIDTH 9 0
BBX 9 5 0 0
BITMAP
7E00
2C00
2F00
AD80
CF00
ENDCHAR

STARTCHAR afii10107
ENCODING 250
SWIDTH 969 0
DWIDTH 10 0
BBX 9 5 1 0
BITMAP
EE00
6C00
7F00
6D80
EF00
ENDCHAR

STARTCHAR afii10108
ENCODING 251
SWIDTH 708 0
DWIDTH 8 0
BBX 7 8 1 0
BITMAP
60
F8
60
78
6C
6C
6C
EE
ENDCHAR

STARTCHAR afii10109
ENCODING 252
SWIDTH 677 0
DWIDTH 8 0
BBX 7 8 1 0
BITMAP
0C
10
00
F6
64
78
6C
F6
ENDCHAR

STARTCHAR section
ENCODING 253
SWIDTH 531 0
DWIDTH 5 0
BBX 4 10 1 -2
BITMAP
70
90
C0
60
B0
D0
60
30
90
E0
ENDCHAR

STARTCHAR afii10110
ENCODING 254
SWIDTH 594 0
DWIDTH 6 0
BBX 6 10 0 -2
BITMAP
48
30
00
EC
68
68
30
30
A0
C0
ENDCHAR

STARTCHAR afii10193
ENCODING 255
SWIDTH 708 0
DWIDTH 8 0
BBX 7 7 1 -2
BITMAP
EE
6C
6C
6C
FE
30
30
ENDCHAR
ENDFONT
